<?xml version="1.0" encoding="UTF-8" standalone="no"?>
<svg
   xmlns:dc="http://purl.org/dc/elements/1.1/"
   xmlns:cc="http://creativecommons.org/ns#"
   xmlns:rdf="http://www.w3.org/1999/02/22-rdf-syntax-ns#"
   xmlns:svg="http://www.w3.org/2000/svg"
   xmlns="http://www.w3.org/2000/svg"
   id="svg8"
   version="1.1"
   viewBox="0 0 76.00145 68.230942"
   height="68.230942mm"
   width="76.00145mm">
  <defs
     id="defs2" />
  <metadata
     id="metadata5">
    <rdf:RDF>
      <cc:Work
         rdf:about="">
        <dc:format>image/svg+xml</dc:format>
        <dc:type
           rdf:resource="http://purl.org/dc/dcmitype/StillImage" />
        <dc:title></dc:title>
      </cc:Work>
    </rdf:RDF>
  </metadata>
  <g
     transform="translate(-40.621931,-172.71436)"
     id="layer1">
    <path
       style="fill:#000000;stroke-width:0.261856"
       d="m 40.688528,211.68293 0.0666,-29.26237 1.571134,-0.18017 c 0.864124,-0.0991 2.969513,-0.24531 4.678643,-0.32494 3.271594,-0.15242 3.804644,-0.32924 5.795584,-1.92251 1.65134,-1.32149 4.27032,-2.98279 6.28454,-3.98645 2.86305,-1.42664 5.8176,-2.25945 9.76456,-2.75239 1.83052,-0.22862 3.4741,-0.46486 3.6524,-0.52498 0.1783,-0.0601 2.86679,0.0688 5.97443,0.28648 6.0264,0.42214 12.16081,1.48212 13.95693,2.41165 0.52513,0.27177 1.24936,0.56952 1.60941,0.66167 0.36005,0.0922 1.83058,0.93584 3.26785,1.87485 1.43727,0.93902 2.741701,1.7073 2.898741,1.7073 0.48759,0 2.46221,1.83851 3.53651,3.29274 2.09888,2.84115 3.05081,6.32654 2.24902,8.23453 -0.55151,1.31243 -0.22581,3.70674 0.71165,5.23149 0.39846,0.6481 1.06031,1.72671 1.47076,2.39693 0.57201,0.93401 0.78271,1.66781 0.90226,3.14227 0.0858,1.05803 0.22303,2.70946 0.30498,3.66985 0.0914,1.07083 0.0363,1.95667 -0.1423,2.29047 -0.38805,0.72508 -0.42457,9.72518 -0.0424,10.43935 0.15423,0.28817 0.81336,1.14832 1.46474,1.91143 0.65139,0.76311 1.18433,1.59737 1.18433,1.85391 0,0.61156 1.16796,3.24353 1.5419,3.47463 0.1601,0.0989 0.29109,0.40499 0.29109,0.6801 0,0.27511 0.23435,0.9498 0.52078,1.49932 0.33604,0.64472 0.6188,1.97122 0.79713,3.73951 0.15199,1.50721 0.39574,3.38847 0.54166,4.18059 0.14592,0.79211 0.36441,2.02938 0.48552,2.74948 0.12111,0.7201 0.30485,1.57441 0.4083,1.89845 l 0.1881,0.58918 H 78.622679 40.621931 Z"
       id="path343" />
  </g>
</svg>
