<?xml version="1.0" encoding="UTF-8"?>
<svg version="1.1" viewBox="0 0 36 36" xmlns="http://www.w3.org/2000/svg" xmlns:cc="http://creativecommons.org/ns#" xmlns:dc="http://purl.org/dc/elements/1.1/" xmlns:rdf="http://www.w3.org/1999/02/22-rdf-syntax-ns#">
 <metadata>
  <rdf:RDF>
   <cc:Work rdf:about="">
    <dc:format>image/svg+xml</dc:format>
    <dc:type rdf:resource="http://purl.org/dc/dcmitype/StillImage"/>
    <dc:title/>
   </cc:Work>
  </rdf:RDF>
 </metadata>
 <path d="M36 32c0 2.209-1.791 4-4 4H4c-2.209 0-4-1.791-4-4v-9c0-2.209.791-3 3-3h30c2.209 0 3 .791 3 3v9z" fill="#fff"/>
 <path d="M26.716 8h-4.783V2c0-1.105-.896-2-2-2h-4.001c-1.104 0-1.999.896-1.999 2v6H9.148c-1.223 0-1.516.623-.651 1.489l7.863 7.863c.865.865 2.28.865 3.146 0l7.863-7.863C28.232 8.623 27.94 8 26.716 8z" fill="#fff"/>
</svg>
